# xmcd CD database file
#
# Track frame offsets:
#	150
#	16006
#	27912
#	41901
#	53502
#	83213
#	96328
#	114161
#	124125
#	133703
#	145094
#	159332
#	169436
#	183516
#	201470
#	219808
#	238447
#	252311
#
# Disc length: 3704 seconds
#
# Revision: 0
# Processed by: cddbd v1.5.2PL0 Copyright (c) Steve Scherf et al.
# Submitted via: CDex 1.70beta2
#
DISCID=fc0e7612
DTITLE=Various - Coffee Time Jazz
DYEAR=2007
DGENRE=Jazz
TTITLE0=Ella Fitzgerald - Black Coffee
TTITLE1=Noro Morales - Isla Verde
TTITLE2=Paul Desmond - El Condor Pasa
TTITLE3=Lalo Schifrin - Rapaz de Bem
TTITLE4=Joe Henderson - Boto
TTITLE5=Les McCann - Guantanamera
TTITLE6=Cal Tjader - It Didn't End
TTITLE7=Kenyon Hopkins - Hard Latin
TTITLE8=The Baja Marimba Band - Flyin' High
TTITLE9=Chico O'Farrill - A Man and a Woman
TTITLE10=Luiz Henrique - A Trip to Brazil
TTITLE11=Walter Wanderley - Amazonas
TTITLE12=Luiz Henrique and Oscar Brown, Jr. - Barra Limpa
TTITLE13=El Chicano - Senor Blues
TTITLE14=Daniel Salinas - Baiao
TTITLE15=The Ramsey Lewis Trio - Bold and Black
TTITLE16=Shirley Scott - Blue Bongo
TTITLE17=Minnie Riperton and Rotary Connection - I Am the Black Gold of the Sun
EXTD=YEAR: 2007
EXTT0=
EXTT1=
EXTT2=
EXTT3=
EXTT4=
EXTT5=
EXTT6=
EXTT7=
EXTT8=
EXTT9=
EXTT10=
EXTT11=
EXTT12=
EXTT13=
EXTT14=
EXTT15=
EXTT16=
EXTT17=
PLAYORDER=
